<!-- <svg width="23" height="23" viewBox="0 0 23 23" fill="none" xmlns="http://www.w3.org/2000/svg">
<path d="M10.4545 0C9.35139 1.58314 10.447 5.76875 10.6868 7.66667L11.6161 7.43434C11.3577 5.38927 11.5997 1.67624 10.4545 0Z" fill="#FF7000"/>
<path d="M13.4748 0.232422L11.8485 7.43444L12.7778 7.66677L14.1717 0.464745L13.4748 0.232422Z" fill="#FF7000"/>
<path d="M6.73743 1.16152L9.29299 7.8989L4.87884 2.55546L3.94955 2.78778L8.36369 8.82819L2.09097 4.87869L1.85864 5.80799L8.13137 9.75748L9.29299 7.8989L10.4546 7.66657L7.66672 0.929199L6.73743 1.16152Z" fill="#FF7000"/>
<path d="M16.495 1.16162L13.0101 7.89899C14.6309 8.14428 17.5934 2.41568 16.495 1.16162Z" fill="#FF7000"/>
<path d="M14.1718 8.82813C16.2617 8.38753 18.7828 5.18398 19.9798 3.4847C18.0304 3.32137 14.6725 7.04403 14.1718 8.82813Z" fill="#FF7000"/>
<path d="M0.696923 7.89893L0.4646 8.5959C2.42945 9.62711 5.44754 10.5854 7.66662 10.6868C7.06518 8.95723 2.38006 8.24727 0.696923 7.89893Z" fill="#FF7000"/>
<path d="M0 11.1516V12.0809H7.43434V11.1516H0Z" fill="#FF7000"/>
<path d="M15.5657 12.0809L23 11.8485V11.3839C21.525 10.9479 16.1205 10.4093 15.5657 12.0809Z" fill="#FF7000"/>
<path d="M15.3334 12.5457C15.9364 14.2785 20.622 14.9856 22.3031 15.3335L22.5354 15.1012V14.6366C20.5579 13.5987 17.5666 12.643 15.3334 12.5457Z" fill="#FF7000"/>
<path d="M15.1011 13.4749L14.6365 14.4041L20.9092 18.3536L21.1415 17.4243L15.1011 13.4749Z" fill="#FF7000"/>
<path d="M3.25256 19.7475L3.48489 19.9798L9.06064 15.101C7.56367 13.7254 3.87651 18.4095 3.25256 19.7475Z" fill="#FF7000"/>
<path d="M15.3334 22.3031H16.2627L13.7072 15.101H13.9395C14.8923 16.9475 16.9246 19.7752 18.8183 20.6768L19.0506 20.4445C18.2992 18.7585 16.4896 16.3427 15.0339 15.1849C14.4132 14.6913 13.2379 14.8027 12.9424 15.6564C12.4179 17.1723 14.9044 20.7351 15.3334 22.3031Z" fill="#FF7000"/>
<path d="M9.0606 15.1011C8.41135 16.6605 5.23375 20.6991 6.50504 22.0708L9.98989 15.3334L9.0606 15.1011Z" fill="#FF7000"/>
<path d="M10.2223 15.5657L9.06067 23C11.1948 22.3758 10.0118 17.4403 11.6162 16.0303C11.6162 17.5172 11.401 22.5293 13.0102 23C13.0092 21.5046 13.3123 17.1189 12.3067 15.9903C11.8991 15.5329 10.7878 15.6271 10.2223 15.5657Z" fill="#FF7000"/>
</svg> -->

<svg width="142" height="128" viewBox="0 0 142 128" fill="none" xmlns="http://www.w3.org/2000/svg">
<path d="M142 18.2842C142 59.6999 106.738 127.284 68.9063 127.284C31.0748 127.284 0 56.1157 0 18.2842C0 -30.7158 31.0748 34.2842 68.9063 34.2842C106.738 34.2842 142 -23.1316 142 18.2842Z" fill="url(#paint0_linear_1_93)"/>
<path d="M138.591 10.3565C139.126 12.8658 139.406 16.132 139.406 20.2842C139.406 58.1157 106.738 127.284 68.9063 127.284C31.0748 127.284 0.406342 58.1157 0.406342 20.2842C0.406348 -28.7158 31.0748 34.2842 68.9063 34.2842C78.6538 34.2842 88.058 30.3668 96.6495 25.3213C88.216 30.4159 79.2796 34.2506 68.9063 34.4785C53.002 34.378 39.5454 24.4326 27.5147 15.0986C21.3648 10.5149 15.6169 4.73562 8.5538 2.44141C4.70652 1.22976 2.64239 5.23008 2.02451 8.84864C1.30275 12.5657 1.20537 16.3008 1.22079 20.2842C4.87146 62.6561 24.4985 117.667 68.9063 125.351C106.375 120.169 124.619 76.7981 134.024 42.3936C135.584 35.6783 136.679 28.9186 136.881 22.1104C136.898 21.4926 137.573 20.9026 138.906 20.2842C138.977 17.0707 139.234 13.5539 138.591 10.3565ZM129.743 3.84766C124.376 6.49979 119.286 9.84939 114.256 13.3525C114.702 13.0277 115.144 12.7064 115.581 12.3897C120.185 9.24589 124.849 6.26234 129.73 3.85157C129.8 3.82931 129.87 3.80793 129.94 3.78711C129.874 3.80726 129.808 3.82645 129.743 3.84766ZM135.578 4.3584C136.466 5.25322 137.147 6.24958 137.674 7.31739C137.906 7.86772 138.115 8.48092 138.302 9.16114C137.797 7.393 136.956 5.75365 135.578 4.3584ZM130.659 3.59376C130.67 3.59135 130.68 3.58929 130.691 3.58692C130.68 3.58927 130.67 3.59137 130.659 3.59376ZM130.996 3.52344C131.02 3.51881 131.043 3.51323 131.066 3.50879C131.08 3.50641 131.092 3.50331 131.106 3.50098C131.123 3.49774 131.141 3.49532 131.158 3.49219C131.104 3.50158 131.05 3.51309 130.996 3.52344ZM131.36 3.45997C131.953 3.37193 132.555 3.34316 133.14 3.40333C132.535 3.34143 131.913 3.37423 131.302 3.46973C131.321 3.46655 131.341 3.46301 131.36 3.45997ZM138.553 10.1758C138.56 10.2095 138.568 10.2433 138.575 10.2774C138.568 10.2434 138.56 10.2097 138.553 10.1758Z" fill="#B13D3D"/>
<mask id="path-3-inside-1_1_93" fill="white">
<path d="M127 42.9848C127 72.7901 98.5619 127.284 65.6295 127.284C32.697 127.284 6 72.7901 6 42.9848C6 4.38034 32.697 54.0146 65.6295 54.0146C98.5619 54.0146 127 7.53173 127 42.9848Z"/>
</mask>
<path d="M127 42.9848C127 72.7901 98.5619 127.284 65.6295 127.284C32.697 127.284 6 72.7901 6 42.9848C6 4.38034 32.697 54.0146 65.6295 54.0146C98.5619 54.0146 127 7.53173 127 42.9848Z" fill="url(#paint1_linear_1_93)"/>
<path d="M137 42.9848C130.333 42.9848 123.667 42.9848 117 42.9848C117.153 47.9621 116.338 53.6268 115.004 59.1968C108.242 85.5538 90.3027 117.745 65.6295 120.097C35.5698 118.093 13.2326 75.7126 10.3977 42.9848C10.3226 39.8384 10.3984 36.7734 10.9523 34.3454C11.1848 33.1941 11.7383 32.2729 11.7388 32.3029C11.7396 32.2918 11.5947 32.299 11.7588 32.2564C11.9057 32.2209 12.3317 32.2448 12.8137 32.3688C17.3756 33.7653 23.0253 38.2132 28.3642 41.7541C39.1043 48.9966 51.3754 56.6762 65.6295 56.4582C87.2058 55.6754 101.851 39.2068 118.604 31.0467C120.067 30.549 121.639 30.3149 122.842 30.9229C126.166 32.9673 126.288 38.58 126.5 42.9848C126.833 42.9848 127.167 42.9848 127.5 42.9848C127.343 38.4485 128.24 32.967 123.642 29.4273C121.795 28.4002 119.708 28.7163 118.03 29.1832C99.7873 37.148 84.6306 52.038 65.6295 51.571C53.4247 51.1857 42.4893 43.8447 32.3457 36.1907C26.9955 32.3864 22.769 27.9165 15.0053 24.864C13.0737 24.2102 9.55377 23.795 6.81558 25.918C4.25226 27.9441 3.51492 30.3547 2.93218 32.1817C1.86035 36.0689 1.71448 39.4442 1.60234 42.9848C1.70831 63.0259 8.4724 81.437 17.9389 98.3832C27.6479 114.495 41.5106 133.083 65.6295 134.471C105.997 130.337 122.673 94.5319 133.4 64.1454C135.33 57.4922 136.806 50.5935 137 42.9848ZM117 42.9848H137H127.5H126.5H117Z" fill="black" mask="url(#path-3-inside-1_1_93)"/>
<rect x="12" y="85.5284" width="63" height="20.5116" rx="4" fill="white"/>
<rect x="33.2625" y="64.2842" width="20.475" height="63" rx="4" fill="white"/>
<defs>
<linearGradient id="paint0_linear_1_93" x1="69.5" y1="-6.37501" x2="69.5" y2="119.284" gradientUnits="userSpaceOnUse">
<stop offset="0.293269" stop-color="#44BBD5"/>
<stop offset="0.673077" stop-color="#0E404D"/>
</linearGradient>
<linearGradient id="paint1_linear_1_93" x1="66.5" y1="28.2842" x2="66.5" y2="127.284" gradientUnits="userSpaceOnUse">
<stop offset="0.139423" stop-color="#00327D"/>
<stop offset="0.572115" stop-color="#005BE3"/>
</linearGradient>
</defs>
</svg>
