<svg width="560" height="388" viewBox="0 0 560 388" fill="none" xmlns="http://www.w3.org/2000/svg">
<g filter="url(#filter0_di_3_31)">
<rect x="76" width="442" height="380" rx="30" fill="white"/>
</g>
<g filter="url(#filter1_di_3_31)">
<rect x="14" y="39" width="327" height="83" rx="15" fill="#F8F8F8"/>
</g>
<rect x="38" y="54" width="58" height="53" rx="4" fill="#3B82F6"/>
<path d="M64.0682 86.7386V86.2955C64.0795 84.2386 64.2727 82.6023 64.6477 81.3864C65.0341 80.1705 65.5795 79.1932 66.2841 78.4545C66.9886 77.7045 67.8466 77.017 68.858 76.392C69.5511 75.9602 70.1705 75.4886 70.7159 74.9773C71.2727 74.4545 71.7102 73.875 72.0284 73.2386C72.3466 72.5909 72.5057 71.8693 72.5057 71.0739C72.5057 70.1761 72.2955 69.3977 71.875 68.7386C71.4545 68.0795 70.8864 67.5682 70.1705 67.2045C69.4659 66.8409 68.6761 66.6591 67.8011 66.6591C66.9943 66.6591 66.2273 66.8352 65.5 67.1875C64.7841 67.5284 64.1875 68.0511 63.7102 68.7557C63.2443 69.4489 62.983 70.3295 62.9261 71.3977H56.858C56.9148 69.2386 57.4375 67.4318 58.4261 65.9773C59.4261 64.5227 60.7443 63.4318 62.3807 62.7045C64.0284 61.9773 65.8466 61.6136 67.8352 61.6136C70.0057 61.6136 71.9148 61.9943 73.5625 62.7557C75.2216 63.517 76.5114 64.6023 77.4318 66.0114C78.3636 67.4091 78.8295 69.0682 78.8295 70.9886C78.8295 72.2841 78.6193 73.4432 78.1989 74.4659C77.7898 75.4886 77.2045 76.3977 76.4432 77.1932C75.6818 77.9886 74.7784 78.6989 73.733 79.3239C72.8125 79.892 72.0568 80.483 71.4659 81.0966C70.8864 81.7102 70.4545 82.4318 70.1705 83.2614C69.8977 84.0795 69.7557 85.0909 69.7443 86.2955V86.7386H64.0682ZM67.0341 97.375C66.0114 97.375 65.1307 97.0114 64.392 96.2841C63.6534 95.5568 63.2841 94.6705 63.2841 93.625C63.2841 92.6023 63.6534 91.7273 64.392 91C65.1307 90.2727 66.0114 89.9091 67.0341 89.9091C68.0455 89.9091 68.9205 90.2727 69.6591 91C70.4091 91.7273 70.7841 92.6023 70.7841 93.625C70.7841 94.3182 70.608 94.9489 70.2557 95.517C69.9148 96.0852 69.4602 96.5398 68.892 96.8807C68.3352 97.2102 67.7159 97.375 67.0341 97.375Z" fill="white"/>
<rect x="109" y="90" width="156" height="15" rx="7.5" fill="#939EB5"/>
<rect x="109" y="60" width="82" height="15" rx="7.5" fill="#939EB5" fill-opacity="0.39"/>
<g filter="url(#filter2_di_3_31)">
<rect x="4" y="256" width="327" height="83" rx="15" fill="white"/>
</g>
<rect x="28" y="271" width="58" height="53" rx="4" fill="#3B82F6"/>
<path d="M54.0682 303.739V303.295C54.0795 301.239 54.2727 299.602 54.6477 298.386C55.0341 297.17 55.5795 296.193 56.2841 295.455C56.9886 294.705 57.8466 294.017 58.858 293.392C59.5511 292.96 60.1705 292.489 60.7159 291.977C61.2727 291.455 61.7102 290.875 62.0284 290.239C62.3466 289.591 62.5057 288.869 62.5057 288.074C62.5057 287.176 62.2955 286.398 61.875 285.739C61.4545 285.08 60.8864 284.568 60.1705 284.205C59.4659 283.841 58.6761 283.659 57.8011 283.659C56.9943 283.659 56.2273 283.835 55.5 284.188C54.7841 284.528 54.1875 285.051 53.7102 285.756C53.2443 286.449 52.983 287.33 52.9261 288.398H46.858C46.9148 286.239 47.4375 284.432 48.4261 282.977C49.4261 281.523 50.7443 280.432 52.3807 279.705C54.0284 278.977 55.8466 278.614 57.8352 278.614C60.0057 278.614 61.9148 278.994 63.5625 279.756C65.2216 280.517 66.5114 281.602 67.4318 283.011C68.3636 284.409 68.8295 286.068 68.8295 287.989C68.8295 289.284 68.6193 290.443 68.1989 291.466C67.7898 292.489 67.2045 293.398 66.4432 294.193C65.6818 294.989 64.7784 295.699 63.733 296.324C62.8125 296.892 62.0568 297.483 61.4659 298.097C60.8864 298.71 60.4545 299.432 60.1705 300.261C59.8977 301.08 59.7557 302.091 59.7443 303.295V303.739H54.0682ZM57.0341 314.375C56.0114 314.375 55.1307 314.011 54.392 313.284C53.6534 312.557 53.2841 311.67 53.2841 310.625C53.2841 309.602 53.6534 308.727 54.392 308C55.1307 307.273 56.0114 306.909 57.0341 306.909C58.0455 306.909 58.9205 307.273 59.6591 308C60.4091 308.727 60.7841 309.602 60.7841 310.625C60.7841 311.318 60.608 311.949 60.2557 312.517C59.9148 313.085 59.4602 313.54 58.892 313.881C58.3352 314.21 57.7159 314.375 57.0341 314.375Z" fill="white"/>
<rect x="99" y="307" width="156" height="15" rx="7.5" fill="#939EB5"/>
<rect x="99" y="277" width="82" height="15" rx="7.5" fill="#939EB5" fill-opacity="0.39"/>
<g filter="url(#filter3_di_3_31)">
<rect x="229" y="149" width="327" height="83" rx="15" fill="white"/>
</g>
<rect x="253" y="164" width="58" height="53" rx="4" fill="#3B82F6"/>
<path d="M279.068 196.739V196.295C279.08 194.239 279.273 192.602 279.648 191.386C280.034 190.17 280.58 189.193 281.284 188.455C281.989 187.705 282.847 187.017 283.858 186.392C284.551 185.96 285.17 185.489 285.716 184.977C286.273 184.455 286.71 183.875 287.028 183.239C287.347 182.591 287.506 181.869 287.506 181.074C287.506 180.176 287.295 179.398 286.875 178.739C286.455 178.08 285.886 177.568 285.17 177.205C284.466 176.841 283.676 176.659 282.801 176.659C281.994 176.659 281.227 176.835 280.5 177.188C279.784 177.528 279.188 178.051 278.71 178.756C278.244 179.449 277.983 180.33 277.926 181.398H271.858C271.915 179.239 272.438 177.432 273.426 175.977C274.426 174.523 275.744 173.432 277.381 172.705C279.028 171.977 280.847 171.614 282.835 171.614C285.006 171.614 286.915 171.994 288.562 172.756C290.222 173.517 291.511 174.602 292.432 176.011C293.364 177.409 293.83 179.068 293.83 180.989C293.83 182.284 293.619 183.443 293.199 184.466C292.79 185.489 292.205 186.398 291.443 187.193C290.682 187.989 289.778 188.699 288.733 189.324C287.813 189.892 287.057 190.483 286.466 191.097C285.886 191.71 285.455 192.432 285.17 193.261C284.898 194.08 284.756 195.091 284.744 196.295V196.739H279.068ZM282.034 207.375C281.011 207.375 280.131 207.011 279.392 206.284C278.653 205.557 278.284 204.67 278.284 203.625C278.284 202.602 278.653 201.727 279.392 201C280.131 200.273 281.011 199.909 282.034 199.909C283.045 199.909 283.92 200.273 284.659 201C285.409 201.727 285.784 202.602 285.784 203.625C285.784 204.318 285.608 204.949 285.256 205.517C284.915 206.085 284.46 206.54 283.892 206.881C283.335 207.21 282.716 207.375 282.034 207.375Z" fill="white"/>
<rect x="324" y="200" width="156" height="15" rx="7.5" fill="#939EB5"/>
<rect x="324" y="170" width="82" height="15" rx="7.5" fill="#939EB5" fill-opacity="0.39"/>
<defs>
<filter id="filter0_di_3_31" x="72" y="0" width="450" height="388" filterUnits="userSpaceOnUse" color-interpolation-filters="sRGB">
<feFlood flood-opacity="0" result="BackgroundImageFix"/>
<feColorMatrix in="SourceAlpha" type="matrix" values="0 0 0 0 0 0 0 0 0 0 0 0 0 0 0 0 0 0 127 0" result="hardAlpha"/>
<feOffset dy="4"/>
<feGaussianBlur stdDeviation="2"/>
<feComposite in2="hardAlpha" operator="out"/>
<feColorMatrix type="matrix" values="0 0 0 0 0 0 0 0 0 0 0 0 0 0 0 0 0 0 0.1 0"/>
<feBlend mode="normal" in2="BackgroundImageFix" result="effect1_dropShadow_3_31"/>
<feBlend mode="normal" in="SourceGraphic" in2="effect1_dropShadow_3_31" result="shape"/>
<feColorMatrix in="SourceAlpha" type="matrix" values="0 0 0 0 0 0 0 0 0 0 0 0 0 0 0 0 0 0 127 0" result="hardAlpha"/>
<feOffset dy="4"/>
<feGaussianBlur stdDeviation="2"/>
<feComposite in2="hardAlpha" operator="arithmetic" k2="-1" k3="1"/>
<feColorMatrix type="matrix" values="0 0 0 0 0 0 0 0 0 0 0 0 0 0 0 0 0 0 0.1 0"/>
<feBlend mode="normal" in2="shape" result="effect2_innerShadow_3_31"/>
</filter>
<filter id="filter1_di_3_31" x="10" y="39" width="335" height="91" filterUnits="userSpaceOnUse" color-interpolation-filters="sRGB">
<feFlood flood-opacity="0" result="BackgroundImageFix"/>
<feColorMatrix in="SourceAlpha" type="matrix" values="0 0 0 0 0 0 0 0 0 0 0 0 0 0 0 0 0 0 127 0" result="hardAlpha"/>
<feOffset dy="4"/>
<feGaussianBlur stdDeviation="2"/>
<feComposite in2="hardAlpha" operator="out"/>
<feColorMatrix type="matrix" values="0 0 0 0 0 0 0 0 0 0 0 0 0 0 0 0 0 0 0.25 0"/>
<feBlend mode="normal" in2="BackgroundImageFix" result="effect1_dropShadow_3_31"/>
<feBlend mode="normal" in="SourceGraphic" in2="effect1_dropShadow_3_31" result="shape"/>
<feColorMatrix in="SourceAlpha" type="matrix" values="0 0 0 0 0 0 0 0 0 0 0 0 0 0 0 0 0 0 127 0" result="hardAlpha"/>
<feOffset dy="4"/>
<feGaussianBlur stdDeviation="2"/>
<feComposite in2="hardAlpha" operator="arithmetic" k2="-1" k3="1"/>
<feColorMatrix type="matrix" values="0 0 0 0 0 0 0 0 0 0 0 0 0 0 0 0 0 0 0.1 0"/>
<feBlend mode="normal" in2="shape" result="effect2_innerShadow_3_31"/>
</filter>
<filter id="filter2_di_3_31" x="0" y="256" width="335" height="91" filterUnits="userSpaceOnUse" color-interpolation-filters="sRGB">
<feFlood flood-opacity="0" result="BackgroundImageFix"/>
<feColorMatrix in="SourceAlpha" type="matrix" values="0 0 0 0 0 0 0 0 0 0 0 0 0 0 0 0 0 0 127 0" result="hardAlpha"/>
<feOffset dy="4"/>
<feGaussianBlur stdDeviation="2"/>
<feComposite in2="hardAlpha" operator="out"/>
<feColorMatrix type="matrix" values="0 0 0 0 0 0 0 0 0 0 0 0 0 0 0 0 0 0 0.25 0"/>
<feBlend mode="normal" in2="BackgroundImageFix" result="effect1_dropShadow_3_31"/>
<feBlend mode="normal" in="SourceGraphic" in2="effect1_dropShadow_3_31" result="shape"/>
<feColorMatrix in="SourceAlpha" type="matrix" values="0 0 0 0 0 0 0 0 0 0 0 0 0 0 0 0 0 0 127 0" result="hardAlpha"/>
<feOffset dy="4"/>
<feGaussianBlur stdDeviation="2"/>
<feComposite in2="hardAlpha" operator="arithmetic" k2="-1" k3="1"/>
<feColorMatrix type="matrix" values="0 0 0 0 0 0 0 0 0 0 0 0 0 0 0 0 0 0 0.1 0"/>
<feBlend mode="normal" in2="shape" result="effect2_innerShadow_3_31"/>
</filter>
<filter id="filter3_di_3_31" x="225" y="149" width="335" height="91" filterUnits="userSpaceOnUse" color-interpolation-filters="sRGB">
<feFlood flood-opacity="0" result="BackgroundImageFix"/>
<feColorMatrix in="SourceAlpha" type="matrix" values="0 0 0 0 0 0 0 0 0 0 0 0 0 0 0 0 0 0 127 0" result="hardAlpha"/>
<feOffset dy="4"/>
<feGaussianBlur stdDeviation="2"/>
<feComposite in2="hardAlpha" operator="out"/>
<feColorMatrix type="matrix" values="0 0 0 0 0 0 0 0 0 0 0 0 0 0 0 0 0 0 0.25 0"/>
<feBlend mode="normal" in2="BackgroundImageFix" result="effect1_dropShadow_3_31"/>
<feBlend mode="normal" in="SourceGraphic" in2="effect1_dropShadow_3_31" result="shape"/>
<feColorMatrix in="SourceAlpha" type="matrix" values="0 0 0 0 0 0 0 0 0 0 0 0 0 0 0 0 0 0 127 0" result="hardAlpha"/>
<feOffset dy="4"/>
<feGaussianBlur stdDeviation="2"/>
<feComposite in2="hardAlpha" operator="arithmetic" k2="-1" k3="1"/>
<feColorMatrix type="matrix" values="0 0 0 0 0 0 0 0 0 0 0 0 0 0 0 0 0 0 0.1 0"/>
<feBlend mode="normal" in2="shape" result="effect2_innerShadow_3_31"/>
</filter>
</defs>
</svg>
