<svg width="204" height="204" viewBox="0 0 204 204" fill="none" xmlns="http://www.w3.org/2000/svg">
<path d="M204 102C204 158.333 158.333 204 102 204C45.667 204 0 158.333 0 102C0 45.667 45.667 0 102 0C-13.5 71.5 102 230 204 102Z" fill="url(#paint0_linear_15_29)"/>
<path d="M119.794 41.1256C121.145 37.799 125.855 37.799 127.206 41.1256L133.281 56.0854C133.849 57.4837 135.156 58.4434 136.66 58.5669L152.598 59.8755C156.117 60.1645 157.563 64.5399 154.908 66.8689L142.626 77.6438C141.517 78.6168 141.034 80.1212 141.369 81.5581L145.096 97.5625C145.906 101.038 142.104 103.753 139.079 101.861L125.621 93.4425C124.324 92.6307 122.676 92.6307 121.379 93.4425L107.921 101.861C104.896 103.753 101.094 101.038 101.904 97.5625L105.631 81.5581C105.966 80.1212 105.483 78.6168 104.374 77.6438L92.0917 66.8689C89.4369 64.5399 90.8825 60.1645 94.4023 59.8755L110.34 58.5669C111.844 58.4434 113.151 57.4837 113.719 56.0854L119.794 41.1256Z" fill="#3B82F6"/>
<defs>
<linearGradient id="paint0_linear_15_29" x1="102" y1="0" x2="102" y2="204" gradientUnits="userSpaceOnUse">
<stop stop-color="#7BADFF"/>
<stop offset="0.701923" stop-color="#0058E8"/>
</linearGradient>
</defs>
</svg>
