<svg width="261" height="220" viewBox="0 0 261 220" fill="none" xmlns="http://www.w3.org/2000/svg">
<path d="M130.231 3.49955C130.345 3.49955 130.439 3.53081 130.504 3.56986C130.555 3.60091 130.622 3.65494 130.684 3.78568L164.226 74.4722C165.386 76.9182 167.775 78.549 170.476 78.7388L256.493 84.7837C256.665 84.7959 256.738 84.8455 256.778 84.8794C256.836 84.928 256.901 85.0154 256.938 85.1402C256.974 85.2651 256.967 85.3739 256.945 85.4458C256.93 85.4961 256.896 85.5783 256.758 85.6822L192.042 134.273C189.585 136.118 188.501 139.275 189.308 142.24L209.212 215.377C209.253 215.528 209.234 215.612 209.215 215.667C209.19 215.738 209.134 215.825 209.04 215.9C208.946 215.974 208.85 216.009 208.774 216.018C208.717 216.025 208.631 216.023 208.493 215.95L133.772 175.946C131.56 174.762 128.903 174.762 126.691 175.946L51.9707 215.95C51.8332 216.023 51.7456 216.025 51.6885 216.018C51.6134 216.009 51.5165 215.975 51.4229 215.9C51.329 215.825 51.2733 215.738 51.2481 215.667C51.229 215.612 51.2112 215.528 51.252 215.377L71.1553 142.24C71.962 139.275 70.879 136.118 68.4219 134.273L3.70511 85.6822C3.56683 85.5783 3.53276 85.4961 3.51761 85.4458C3.49597 85.3739 3.48957 85.265 3.5264 85.1402C3.56326 85.0156 3.62746 84.928 3.6846 84.8794C3.72463 84.8454 3.79817 84.7959 3.97073 84.7837L89.9873 78.7388C92.688 78.549 95.0777 76.9182 96.2383 74.4722L129.78 3.78568C129.842 3.65483 129.908 3.60088 129.96 3.56986C130.025 3.53089 130.119 3.49959 130.231 3.49955Z" stroke="#3B82F6" stroke-width="7"/>
<path d="M130.231 3.49955C130.345 3.49955 130.439 3.53081 130.504 3.56986C130.555 3.60091 130.622 3.65494 130.684 3.78568L164.226 74.4722C165.386 76.9182 167.775 78.549 170.476 78.7388L256.493 84.7837C256.665 84.7959 256.738 84.8455 256.778 84.8794C256.836 84.928 256.901 85.0154 256.938 85.1402C256.974 85.2651 256.967 85.3739 256.945 85.4458C256.93 85.4961 256.896 85.5783 256.758 85.6822L192.042 134.273C189.585 136.118 188.501 139.275 189.308 142.24L209.212 215.377C209.253 215.528 209.234 215.612 209.215 215.667C209.19 215.738 209.134 215.825 209.04 215.9C208.946 215.974 208.85 216.009 208.774 216.018C208.717 216.025 208.631 216.023 208.493 215.95L133.772 175.946C131.56 174.762 128.903 174.762 126.691 175.946L51.9707 215.95C51.8332 216.023 51.7456 216.025 51.6885 216.018C51.6134 216.009 51.5165 215.975 51.4229 215.9C51.329 215.825 51.2733 215.738 51.2481 215.667C51.229 215.612 51.2112 215.528 51.252 215.377L71.1553 142.24C71.962 139.275 70.879 136.118 68.4219 134.273L3.70511 85.6822C3.56683 85.5783 3.53276 85.4961 3.51761 85.4458C3.49597 85.3739 3.48957 85.265 3.5264 85.1402C3.56326 85.0156 3.62746 84.928 3.6846 84.8794C3.72463 84.8454 3.79817 84.7959 3.97073 84.7837L89.9873 78.7388C92.688 78.549 95.0777 76.9182 96.2383 74.4722L129.78 3.78568C129.842 3.65483 129.908 3.60088 129.96 3.56986C130.025 3.53089 130.119 3.49959 130.231 3.49955Z" stroke="#3B82F6" stroke-width="7"/>
</svg>
