<svg width="261" height="220" viewBox="0 0 261 220" fill="none" xmlns="http://www.w3.org/2000/svg">
<path d="M126.618 2.2852C128.064 -0.761738 132.4 -0.761728 133.846 2.28521L167.388 72.9721C168.007 74.2766 169.281 75.1463 170.721 75.2475L256.738 81.2919C260.432 81.5515 261.82 86.2577 258.86 88.4808L194.143 137.072C192.833 138.056 192.255 139.74 192.685 141.321L212.589 214.458C213.51 217.845 209.935 220.692 206.841 219.035L132.12 179.031C130.94 178.4 129.523 178.4 128.344 179.031L53.6223 219.035C50.5283 220.692 46.9532 217.845 47.8747 214.458L67.7783 141.321C68.2086 139.74 67.6309 138.056 66.3204 137.072L1.6039 88.4808C-1.35702 86.2577 0.0317018 81.5515 3.72522 81.2919L89.7425 75.2475C91.1828 75.1463 92.4569 74.2766 93.0759 72.9721L126.618 2.2852Z" fill="#3B82F6"/>
</svg>
