<svg width="348" height="250" viewBox="0 0 348 250" fill="none" xmlns="http://www.w3.org/2000/svg">
<path d="M133.588 28.8676C135.033 25.8207 139.369 25.8207 140.815 28.8676L174.357 99.5545C174.976 100.859 176.25 101.729 177.691 101.83L263.708 107.874C267.401 108.134 268.79 112.84 265.829 115.063L201.113 163.655C199.802 164.639 199.225 166.322 199.655 167.904L219.558 241.041C220.48 244.427 216.905 247.274 213.811 245.618L139.089 205.613C137.91 204.982 136.493 204.982 135.313 205.613L60.592 245.618C57.498 247.274 53.9229 244.427 54.8444 241.041L74.748 167.904C75.1783 166.322 74.6006 164.639 73.2901 163.655L8.57359 115.063C5.61268 112.84 7.0014 108.134 10.6949 107.874L96.7122 101.83C98.1525 101.729 99.4265 100.859 100.046 99.5545L133.588 28.8676Z" fill="url(#paint0_linear_12_80)"/>
<path d="M274.734 0L287.357 32.3064H328.203L295.157 52.2728L307.78 84.5791L274.734 64.6127L241.689 84.5791L254.311 52.2728L221.266 32.3064H262.112L274.734 0Z" fill="url(#paint1_linear_12_80)"/>
<path d="M291.706 136.012L304.329 168.319H345.175L312.13 188.285L324.752 220.591L291.706 200.625L258.661 220.591L271.283 188.285L238.238 168.319H279.084L291.706 136.012Z" fill="url(#paint2_linear_12_80)"/>
<defs>
<linearGradient id="paint0_linear_12_80" x1="137.201" y1="21.2519" x2="137.201" y2="250" gradientUnits="userSpaceOnUse">
<stop stop-color="#87B4FF"/>
<stop offset="0.735577" stop-color="#065EEE"/>
</linearGradient>
<linearGradient id="paint1_linear_12_80" x1="274.734" y1="0" x2="274.734" y2="93.5084" gradientUnits="userSpaceOnUse">
<stop stop-color="#A2C5FF"/>
<stop offset="0.721154" stop-color="#246BE0"/>
</linearGradient>
<linearGradient id="paint2_linear_12_80" x1="291.706" y1="136.012" x2="291.706" y2="229.521" gradientUnits="userSpaceOnUse">
<stop stop-color="#9CC1FF"/>
<stop offset="0.567308" stop-color="#1662DD"/>
</linearGradient>
</defs>
</svg>
